<?xml version="1.0" standalone="no"?>
<!DOCTYPE svg PUBLIC "-//W3C//DTD SVG 20010904//EN"
 "http://www.w3.org/TR/2001/REC-SVG-20010904/DTD/svg10.dtd">
<svg version="1.0" xmlns="http://www.w3.org/2000/svg"
 width="260.000000pt" height="260.000000pt" viewBox="0 0 260.000000 260.000000"
 preserveAspectRatio="xMidYMid meet">
<metadata>
Created by potrace 1.14, written by Peter Selinger 2001-2017
</metadata>
<g transform="translate(0.000000,260.000000) scale(0.100000,-0.100000)"
fill="#000000" stroke="none">
<path d="M180 2100 l0 -90 695 0 695 0 0 90 0 90 -695 0 -695 0 0 -90z"/>
<path d="M180 1615 l0 -85 695 0 695 0 0 85 0 85 -695 0 -695 0 0 -85z"/>
<path d="M1780 895 c0 -256 2 -465 5 -465 13 0 622 456 621 465 -1 9 -610 465
-621 465 -3 0 -5 -209 -5 -465z"/>
<path d="M180 1130 l0 -90 450 0 450 0 0 90 0 90 -450 0 -450 0 0 -90z"/>
</g>
</svg>
